# xmcd
#
# Track frame offsets: 
#        150
#        9955
#        21119
#        32499
#        48624
#        67011
#        77733
#        87681
#        97509
#        106944
#        118105
#        134756
#        152166
#        161247
#        172031
#        177326
#        189071
#        198173
#        212144
#        223127
#        235896
#        245343
#
# Disc length: 3855 seconds
#
# Revision: 1
# Processed by: cddbd v1.5.2PL0 Copyright (c) Steve Scherf et al.
# Submitted via: ExactAudioCopyFreeDBPlugin 1.0
#
DISCID=2e0f0d16
DTITLE=Various Artist - Battle Ground Bluegrass
DYEAR=2007
DGENRE=Bluegrass
TTITLE0=Michael Cleveland and Chris Thile - Big Mon (1996)
TTITLE1=Bluegrass Power Company - Think of What You've Done (2000)
TTITLE2=Classified Grass - Old Kentucky (1985)
TTITLE3=The Bluegrass Connection - Pan American (1993)
TTITLE4=The Kenny Stone Unit - Train 45 (1998)
TTITLE5=Harold Austin and The First National - A Good Woman's Love (1988
TTITLE5=)
TTITLE6=The Bluegrass Blackjacks - John Henry (1987)
TTITLE7=The Harman and Denman Band - Calvary (1995)
TTITLE8=Classified Grass - Pin In A Pen (1985)
TTITLE9=The Blue Skies Band - The Train I Ride (1999)
TTITLE10=The Chicago Bluegrass Band - Old Joe Clark (2006)
TTITLE11=Off N' Runnin' - Talk It Out (2002)
TTITLE12=Michael Cleveland - Sleepy Valley (1995)
TTITLE13=Pine Mountain - Little Used To Be (1985)
TTITLE14=Jack Rogers - Banjo Talk (1988)
TTITLE15=Harold Austin and The First National - Lonesome Road Blues (198
TTITLE15=8)
TTITLE16=Pine Mountain - Georgia Piney Woods (1985)
TTITLE17=Greg Cahill and Don Stiernberg - Blackjack (1994)
TTITLE18=The Bluegrass Connection - Away Dixie (1990)
TTITLE19=Chris Thile - Salt Creek (1995)
TTITLE20=The Harman Denman Band - Clinch Mountain Backstep (1995)
TTITLE21=The Hammerheads - Blackberry Jam (1999)
EXTD=
EXTT0=
EXTT1=
EXTT2=
EXTT3=
EXTT4=
EXTT5=
EXTT6=
EXTT7=
EXTT8=
EXTT9=
EXTT10=
EXTT11=
EXTT12=
EXTT13=
EXTT14=
EXTT15=
EXTT16=
EXTT17=
EXTT18=
EXTT19=
EXTT20=
EXTT21=
PLAYORDER=
